<svg width="60" height="60" viewBox="0 0 60 60" fill="none" xmlns="http://www.w3.org/2000/svg">
<g id="Emoji emotions" clip-path="url(#clip0_757_2784)">
<g id="Group">
<path id="Vector" d="M31.975 6C18.175 6 7 17.2 7 31C7 44.8 18.175 56 31.975 56C45.8 56 57 44.8 57 31C57 17.2 45.8 6 31.975 6ZM23.25 21C25.325 21 27 22.675 27 24.75C27 26.825 25.325 28.5 23.25 28.5C21.175 28.5 19.5 26.825 19.5 24.75C19.5 22.675 21.175 21 23.25 21ZM32 46C26.3 46 21.45 41.85 19.5 36H44.5C42.55 41.85 37.7 46 32 46ZM40.75 28.5C38.675 28.5 37 26.825 37 24.75C37 22.675 38.675 21 40.75 21C42.825 21 44.5 22.675 44.5 24.75C44.5 26.825 42.825 28.5 40.75 28.5Z" fill="#EAEAEA"/>
</g>
</g>
<defs>
<clipPath id="clip0_757_2784">
<rect width="60" height="60" fill="white"/>
</clipPath>
</defs>
</svg>
