<svg width="1140" height="195" viewBox="0 0 1140 195" fill="none" xmlns="http://www.w3.org/2000/svg">
<path d="M70.7462 194.632C56.6022 194.632 43.0022 192.365 29.9462 187.832C17.0715 183.117 7.09819 177.133 0.0261881 169.88L7.91419 154.376C14.6235 160.904 23.5995 166.435 34.8422 170.968C46.2662 175.32 58.2342 177.496 70.7462 177.496C82.7142 177.496 92.4155 176.045 99.8502 173.144C107.466 170.061 112.997 165.981 116.442 160.904C120.069 155.827 121.882 150.205 121.882 144.04C121.882 136.605 119.706 130.621 115.354 126.088C111.184 121.555 105.653 118.019 98.7622 115.48C91.8715 112.76 84.2555 110.403 75.9142 108.408C67.5729 106.413 59.2315 104.328 50.8902 102.152C42.5489 99.7947 34.8422 96.712 27.7702 92.904C20.8795 89.096 15.2582 84.1093 10.9062 77.944C6.73552 71.5973 4.65019 63.3467 4.65019 53.192C4.65019 43.7627 7.09819 35.1493 11.9942 27.352C17.0715 19.3733 24.7782 13.0267 35.1142 8.31199C45.4502 3.41599 58.6875 0.967992 74.8262 0.967992C85.5249 0.967992 96.1329 2.50933 106.65 5.592C117.168 8.49333 126.234 12.5733 133.85 17.832L127.05 33.88C118.89 28.44 110.186 24.4507 100.938 21.912C91.8715 19.3733 83.0769 18.104 74.5542 18.104C63.1302 18.104 53.7009 19.6453 46.2662 22.728C38.8315 25.8107 33.3009 29.9813 29.6742 35.24C26.2289 40.3173 24.5062 46.12 24.5062 52.648C24.5062 60.0827 26.5915 66.0667 30.7622 70.6C35.1142 75.1333 40.7355 78.6693 47.6262 81.208C54.6982 83.7467 62.4049 86.0133 70.7462 88.008C79.0875 90.0027 87.3382 92.1787 95.4982 94.536C103.84 96.8933 111.456 99.976 118.346 103.784C125.418 107.411 131.04 112.307 135.21 118.472C139.562 124.637 141.738 132.707 141.738 142.68C141.738 151.928 139.2 160.541 134.122 168.52C129.045 176.317 121.248 182.664 110.73 187.56C100.394 192.275 87.0662 194.632 70.7462 194.632ZM239.722 193L155.402 2.59999H177.162L256.042 181.848H244.074L323.498 2.59999H343.898L259.578 193H239.722ZM335.224 193L422.264 2.59999H442.12L529.16 193H507.944L427.976 14.296H436.136L356.168 193H335.224ZM369.496 142.136L375.48 125.816H486.184L492.168 142.136H369.496ZM560.656 193V2.59999H631.92C648.059 2.59999 661.931 5.22932 673.536 10.488C685.142 15.5653 694.027 23 700.192 32.792C706.539 42.4027 709.712 54.0987 709.712 67.88C709.712 81.2987 706.539 92.904 700.192 102.696C694.027 112.307 685.142 119.741 673.536 125C661.931 130.077 648.059 132.616 631.92 132.616H571.808L580.784 123.368V193H560.656ZM690.672 193L641.712 123.912H663.472L712.704 193H690.672ZM580.784 125L571.808 115.48H631.376C650.416 115.48 664.832 111.309 674.624 102.968C684.598 94.6267 689.584 82.9307 689.584 67.88C689.584 52.648 684.598 40.8613 674.624 32.52C664.832 24.1787 650.416 20.008 631.376 20.008H571.808L580.784 10.488V125ZM840.451 194.632C826.126 194.632 812.798 192.275 800.467 187.56C788.318 182.664 777.71 175.864 768.643 167.16C759.758 158.275 752.776 148.029 747.699 136.424C742.803 124.637 740.355 111.763 740.355 97.8C740.355 83.8373 742.803 71.0533 747.699 59.448C752.776 47.6613 759.758 37.416 768.643 28.712C777.71 19.8267 788.318 13.0267 800.467 8.31199C812.616 3.41599 825.944 0.967992 840.451 0.967992C854.776 0.967992 868.014 3.41599 880.163 8.31199C892.312 13.0267 902.83 19.736 911.715 28.44C920.782 37.144 927.763 47.3893 932.659 59.176C937.736 70.9627 940.275 83.8373 940.275 97.8C940.275 111.763 937.736 124.637 932.659 136.424C927.763 148.211 920.782 158.456 911.715 167.16C902.83 175.864 892.312 182.664 880.163 187.56C868.014 192.275 854.776 194.632 840.451 194.632ZM840.451 176.68C851.875 176.68 862.392 174.776 872.003 170.968C881.795 166.979 890.227 161.448 897.299 154.376C904.552 147.123 910.174 138.781 914.163 129.352C918.152 119.741 920.147 109.224 920.147 97.8C920.147 86.376 918.152 75.9493 914.163 66.52C910.174 56.9093 904.552 48.568 897.299 41.496C890.227 34.2427 881.795 28.712 872.003 24.904C862.392 20.9147 851.875 18.92 840.451 18.92C829.027 18.92 818.419 20.9147 808.627 24.904C798.835 28.712 790.312 34.2427 783.059 41.496C775.987 48.568 770.366 56.9093 766.195 66.52C762.206 75.9493 760.211 86.376 760.211 97.8C760.211 109.043 762.206 119.469 766.195 129.08C770.366 138.691 775.987 147.123 783.059 154.376C790.312 161.448 798.835 166.979 808.627 170.968C818.419 174.776 829.027 176.68 840.451 176.68ZM1068.89 194.632C1054.39 194.632 1040.97 192.275 1028.64 187.56C1016.49 182.664 1005.88 175.864 996.815 167.16C987.929 158.456 980.948 148.211 975.871 136.424C970.975 124.637 968.527 111.763 968.527 97.8C968.527 83.8373 970.975 70.9627 975.871 59.176C980.948 47.3893 988.02 37.144 997.087 28.44C1006.15 19.736 1016.76 13.0267 1028.91 8.31199C1041.24 3.41599 1054.66 0.967992 1069.17 0.967992C1083.67 0.967992 1096.91 3.23466 1108.88 7.76799C1121.03 12.3013 1131.36 19.192 1139.89 28.44L1127.37 41.224C1119.4 33.2453 1110.6 27.5333 1100.99 24.088C1091.38 20.6427 1081.04 18.92 1069.98 18.92C1058.2 18.92 1047.32 20.9147 1037.34 24.904C1027.55 28.712 1018.94 34.2427 1011.5 41.496C1004.25 48.568 998.537 56.9093 994.367 66.52C990.377 75.9493 988.383 86.376 988.383 97.8C988.383 109.043 990.377 119.469 994.367 129.08C998.537 138.691 1004.25 147.123 1011.5 154.376C1018.94 161.448 1027.55 166.979 1037.34 170.968C1047.32 174.776 1058.11 176.68 1069.71 176.68C1080.59 176.68 1090.84 175.048 1100.45 171.784C1110.24 168.52 1119.21 162.989 1127.37 155.192L1138.8 170.424C1129.73 178.403 1119.12 184.477 1106.97 188.648C1094.83 192.637 1082.13 194.632 1068.89 194.632ZM1119.49 167.976V97.8H1138.8V170.424L1119.49 167.976Z" fill="white"/>
</svg>
