<svg width="60" height="60" viewBox="0 0 60 60" fill="none" xmlns="http://www.w3.org/2000/svg">
<g id="Pan tool" clip-path="url(#clip0_900_3048)">
<g id="Group">
<g id="Group_2">
<g id="Group_3">
<path id="Vector" d="M57.5 13.75V50C57.5 55.5 53 60 47.5 60H29.25C26.55 60 24 58.925 22.125 57.025L2.5 37.075C2.5 37.075 5.65 34 5.75 33.95C6.3 33.475 6.975 33.225 7.725 33.225C8.275 33.225 8.775 33.375 9.225 33.625C9.325 33.65 20 39.775 20 39.775V10C20 7.925 21.675 6.25 23.75 6.25C25.825 6.25 27.5 7.925 27.5 10V27.5H30V3.75C30 1.675 31.675 0 33.75 0C35.825 0 37.5 1.675 37.5 3.75V27.5H40V6.25C40 4.175 41.675 2.5 43.75 2.5C45.825 2.5 47.5 4.175 47.5 6.25V27.5H50V13.75C50 11.675 51.675 10 53.75 10C55.825 10 57.5 11.675 57.5 13.75Z" fill="#EAEAEA"/>
</g>
</g>
</g>
</g>
<defs>
<clipPath id="clip0_900_3048">
<rect width="60" height="60" fill="white"/>
</clipPath>
</defs>
</svg>
