<svg width="60" height="60" viewBox="0 0 60 60" fill="none" xmlns="http://www.w3.org/2000/svg">
<g id="Wb sunny" clip-path="url(#clip0_757_2781)">
<path id="Vector" d="M13.9 16.1L9.4 11.625L5.875 15.15L10.35 19.625L13.9 16.1ZM7 30.25H-0.5V35.25H7V30.25ZM29.5 5.375H24.5V12.75H29.5V5.375ZM48.125 15.15L44.6 11.625L40.125 16.1L43.65 19.625L48.125 15.15ZM40.1 49.4L44.575 53.9L48.1 50.375L43.6 45.9L40.1 49.4ZM47 30.25V35.25H54.5V30.25H47ZM27 17.75C18.725 17.75 12 24.475 12 32.75C12 41.025 18.725 47.75 27 47.75C35.275 47.75 42 41.025 42 32.75C42 24.475 35.275 17.75 27 17.75ZM24.5 60.125H29.5V52.75H24.5V60.125ZM5.875 50.35L9.4 53.875L13.875 49.375L10.35 45.85L5.875 50.35Z" fill="#EAEAEA"/>
</g>
<defs>
<clipPath id="clip0_757_2781">
<rect width="60" height="60" fill="white"/>
</clipPath>
</defs>
</svg>
